<?xml version="1.0" standalone="no"?>
<!DOCTYPE svg PUBLIC "-//W3C//DTD SVG 20010904//EN"
 "http://www.w3.org/TR/2001/REC-SVG-20010904/DTD/svg10.dtd">
<svg version="1.0" xmlns="http://www.w3.org/2000/svg"
 width="400.000000pt" height="400.000000pt" viewBox="0 0 400.000000 400.000000"
 preserveAspectRatio="xMidYMid meet">
<metadata>
Created by potrace 1.14, written by Peter Selinger 2001-2017
</metadata>
<g transform="translate(0.000000,400.000000) scale(0.100000,-0.100000)"
fill="#000000" stroke="none">
<path d="M1850 3883 c-85 -9 -252 -48 -337 -78 -241 -86 -465 -257 -614 -470
-60 -86 -76 -128 -94 -246 -17 -111 -42 -173 -130 -320 -25 -41 -48 -92 -52
-113 -6 -36 -3 -41 59 -104 69 -71 88 -98 88 -130 0 -25 -55 -98 -200 -266
-61 -71 -113 -140 -116 -153 -13 -49 5 -91 56 -134 28 -23 50 -50 50 -60 0
-11 -18 -29 -45 -44 -52 -31 -105 -88 -105 -114 0 -18 31 -64 60 -89 8 -7 47
-35 87 -61 69 -47 79 -61 43 -61 -24 0 -70 -45 -70 -70 0 -11 17 -35 38 -54
73 -66 78 -116 12 -116 -15 0 -38 -9 -51 -19 -21 -17 -28 -47 -70 -302 -26
-156 -46 -285 -45 -286 1 -1 53 8 116 19 90 16 157 21 305 21 179 1 195 -1
280 -27 49 -15 115 -43 146 -61 107 -65 193 -184 206 -286 l6 -39 87 0 c98 0
223 -21 268 -44 17 -9 41 -30 55 -47 l24 -31 314 127 c173 70 379 154 459 186
548 222 605 247 601 260 -34 123 -43 285 -22 411 33 200 90 359 229 649 108
223 133 295 157 452 27 174 7 368 -56 561 -77 235 -214 451 -414 652 -253 256
-515 402 -830 466 -96 19 -397 32 -495 21z"/>
</g>
</svg>
